<?xml version="1.0" encoding="UTF-8"?>
<svg id="Camada_2" data-name="Camada 2" xmlns="http://www.w3.org/2000/svg" width="1821.3" height="195.8" viewBox="0 0 1821.3 195.8">
  <defs>
    <style>
      .cls-1 {
        fill: #fff;
      }
    </style>
  </defs>
  <g id="Camada_1-2" data-name="Camada 1">
    <g>
      <rect class="cls-1" x="842.9" y=".2" width="49.6" height="195.6"/>
      <g>
        <rect class="cls-1" x="49.4" y=".2" width="49.6" height="49.6"/>
        <rect class="cls-1" y="49.8" width="49.6" height="146"/>
      </g>
      <polygon class="cls-1" points="247.7 49.8 247.7 146.2 198.1 195.8 98.9 195.8 98.9 49.8 148.5 49.8 148.5 146.2 198.1 146.2 198.1 49.8 148.5 49.8 148.5 .2 198.1 .2 247.7 49.8"/>
      <path class="cls-1" d="M334.4.2l-49.6,49.6v146h49.6v-48.2h49.6v48.2h49.6V.2h-99.2ZM384,98h-49.6v-48.2h49.6v48.2Z"/>
      <g>
        <polygon class="cls-1" points="619.5 49.8 619.5 195.8 569.9 195.8 569.9 49.8 520.3 49.8 520.3 .2 569.9 .2 619.5 49.8"/>
        <rect class="cls-1" x="470.7" y="49.8" width="49.6" height="146"/>
      </g>
      <g>
        <rect class="cls-1" x="656.6" y=".2" width="49.6" height="49.6"/>
        <polygon class="cls-1" points="805.4 .2 805.4 49.8 755.8 49.8 755.8 195.8 706.2 195.8 706.2 49.8 755.8 .2 805.4 .2"/>
      </g>
      <rect class="cls-1" x="1301.1" y="146.2" width="49.6" height="49.6" transform="translate(2651.8 341.9) rotate(-180)"/>
      <g>
        <rect class="cls-1" x="1028.1" y=".2" width="49.6" height="49.6" transform="translate(2105.8 49.9) rotate(-180)"/>
        <polygon class="cls-1" points="1028.1 49.8 1028.1 195.8 978.5 195.8 978.5 49.8 928.9 49.8 928.9 .2 978.5 .2 1028.1 49.8"/>
      </g>
      <g>
        <rect class="cls-1" x="1115.2" y="0" width="49.6" height="73.7" transform="translate(2280 73.7) rotate(-180)"/>
        <polygon class="cls-1" points="1264 0 1264 72.6 1214.4 122.2 1164.8 122.2 1164.8 72.6 1214.4 72.6 1214.4 0 1264 0"/>
        <polygon class="cls-1" points="1264 121.1 1264 195.8 1115.2 195.8 1115.2 146.2 1214.4 146.2 1214.4 121.1 1264 121.1"/>
      </g>
      <g>
        <polygon class="cls-1" points="1487 49.3 1487 49.8 1486.6 49.8 1486.8 49.5 1487 49.3"/>
        <polygon class="cls-1" points="1536.2 49.8 1535.9 49.8 1535.9 49.5 1536.2 49.8"/>
        <rect class="cls-1" x="1387.8" y="49.8" width="49.6" height="146"/>
        <polygon class="cls-1" points="1635.4 49.8 1635.4 195.8 1585.8 195.8 1585.8 49.8 1536.2 49.8 1535.9 49.5 1535.9 49.8 1536.2 96.1 1536.2 195.8 1486.6 195.8 1486.6 96.1 1486.8 49.8 1487 49.8 1487 49.3 1486.8 49.5 1486.6 49.8 1437.4 49.8 1437.4 .2 1585.8 .2 1635.4 49.8"/>
        <polygon class="cls-1" points="1487 49.3 1487 49.8 1486.8 49.8 1486.8 49.5 1487 49.3"/>
        <polygon class="cls-1" points="1536.2 49.8 1536.2 96.1 1535.9 49.8 1535.9 49.5 1536.2 49.8"/>
        <polygon class="cls-1" points="1487 49.3 1487 49.8 1486.8 49.8 1486.6 96.1 1486.6 49.8 1486.8 49.5 1487 49.3"/>
      </g>
      <polygon class="cls-1" points="1722.1 49.8 1722.1 74.3 1821.3 74.3 1821.3 123.2 1722.1 123.2 1722.1 146.2 1821.3 146.2 1821.3 195.8 1672.5 195.8 1672.5 50.2 1722.1 .2 1821.3 .2 1821.3 49.8 1722.1 49.8"/>
    </g>
  </g>
</svg>